# xmcd
#
# Track frame offsets:
#	150
#	29370
#	46675
#	69165
#	92760
#	112220
#	133023
#	158388
#	181600
#	200635
#	224238
#	241638
#	256035
#	267883
#	281075
#
# Disc length: 3888 seconds
# Revision: 0
# Processed by: cddbd v1.5.2PL0 Copyright (c) Steve Scherf et al.
# Submitted via: dBpowerAMP V12.0
#
DISCID=ce0f2e0f
DTITLE=Earl Hooker - 2 Bugs and A Roach
DYEAR=1969
DGENRE=Blues
TTITLE0=Anna Lee
TTITLE1=Off The Hook
TTITLE2=Love Ain't A Playing
TTITLE3=You Don't Want Me
TTITLE4=Two Bugs and A Roach
TTITLE5=Wah Wag Blues
TTITLE6=You Don't Love Me
TTITLE7=Earl Hooker Blues
TTITLE8=Take Me Back to East St. Louis [Bonus 1968]
TTITLE9=New Sweet Black Angel [Bonus 1968]
TTITLE10=Little Carey's Jump [Bonus 1968]
TTITLE11=Original Sweet Black Angel [Bonus 1953]
TTITLE12=Earl's Boogie Woogie [Bonus 1953]
TTITLE13=Guitar Rag [Bonus 1953]
TTITLE14=Going on Down The Line [Bonus 1953]
EXTD=
EXTT0=
EXTT1=
EXTT2=
EXTT3=
EXTT4=
EXTT5=
EXTT6=
EXTT7=
EXTT8=
EXTT9=
EXTT10=
EXTT11=
EXTT12=
EXTT13=
EXTT14=
PLAYORDER=
